<svg width="69" height="67" viewBox="0 0 69 67" fill="none" xmlns="http://www.w3.org/2000/svg">
<path d="M34.5 16.7498V25.1248L46 13.9582L34.5 2.7915V11.1665C21.7925 11.1665 11.5 21.1607 11.5 33.4998C11.5 37.8828 12.8225 41.9586 15.065 45.3923L19.2625 41.3165C17.9687 38.9994 17.25 36.3194 17.25 33.4998C17.25 24.2594 24.9838 16.7498 34.5 16.7498ZM53.935 21.6073L49.7375 25.6832C51.0025 28.0282 51.75 30.6803 51.75 33.4998C51.75 42.7403 44.0162 50.2498 34.5 50.2498V41.8748L23 53.0415L34.5 64.2082V55.8332C47.2075 55.8332 57.5 45.839 57.5 33.4998C57.5 29.1169 56.1775 25.0411 53.935 21.6073V21.6073Z" fill="#5255CA"/>
</svg>
